<svg version="1.1" xmlns="http://www.w3.org/2000/svg" xmlns:xlink="http://www.w3.org/1999/xlink" width="20.99953" height="154.00027" viewBox="0,0,20.99953,154.00027"><g transform="translate(-115.50047,-53.16666)"><g data-paper-data="{&quot;isPaintingLayer&quot;:true}" fill="#9966ff" fill-rule="nonzero" stroke="none" stroke-width="0.5" stroke-linecap="butt" stroke-linejoin="miter" stroke-miterlimit="10" stroke-dasharray="" stroke-dashoffset="0" style="mix-blend-mode: normal"><path d="M117.94728,207.16611c-2.49944,-0.05272 -2.44672,-2.55217 -2.44672,-2.55217l0.1086,-5.02118c2.07649,-18.25422 4.16948,-36.50656 6.25555,-54.75969c2.08169,-18.21477 4.16338,-36.42953 6.24506,-54.6443c1.30446,-11.41401 3.3998,-23.03187 3.39023,-34.52211c0,0 0,-2.5 2.5,-2.5c2.5,0 2.5,2.5 2.5,2.5c-0.0092,11.68831 -2.09565,23.47931 -3.42257,35.08985c-2.08169,18.21477 -4.16338,36.42953 -6.24506,54.6443c-2.0773,18.1764 -4.14728,36.35365 -6.23458,54.52891l-0.09835,4.78967c0,0 -0.05272,2.49944 -2.55217,2.44672z"/></g></g></svg>